<?xml version="1.0" encoding="UTF-8"?> <svg xmlns="http://www.w3.org/2000/svg" xmlns:xlink="http://www.w3.org/1999/xlink" id="Calque_1" data-name="Calque 1" viewBox="0 0 840.44 214.97"><defs><style>.logo-1{fill:none}.logo-2{clip-path:url(#clip-path)}.logo-3{fill:#1b171c}</style><clipPath id="clip-path" transform="translate(0 0)"><rect class="logo-1" width="840.44" height="214.97"></rect></clipPath></defs><title>logoLetrange</title><g class="logo-2"><path class="logo-3" d="M430,105.29l14.57-33.17c1.18-2.52,2.52-2.57,3.68-.06l16.09,33.08a1.75,1.75,0,0,1-1.82,2.41l-30.66.09a1.76,1.76,0,0,1-1.87-2.34m70.35,23.91L454.07,37.35a2.17,2.17,0,0,0-3.23-.5c-4.76,4-11.4,6.48-14.7,7.55A1.64,1.64,0,0,0,435,46.72l3.66,7a1.52,1.52,0,0,1,0,1.35s-33.13,74.26-33.18,74.34a23.58,23.58,0,0,1-12.24,9.33,1.73,1.73,0,0,0-1.29,1.6v2.46a1.87,1.87,0,0,0,2,1.71h32.76a1.87,1.87,0,0,0,2-1.71v-2.53a1.72,1.72,0,0,0-1.2-1.57c-3-1.13-10.45-4.49-8.16-9.4l5.17-11.06a2,2,0,0,1,1.85-1.08l42.3-.14a2,2,0,0,1,1.82,1l5.91,11.27c2.29,4.89-4.51,8.24-7.31,9.38a1.72,1.72,0,0,0-1.14,1.55v2.57a1.87,1.87,0,0,0,2,1.71h41.17a1.87,1.87,0,0,0,2-1.71v-2.5a1.73,1.73,0,0,0-1.23-1.58,23.56,23.56,0,0,1-11.5-9.33l-0.1-.17" transform="translate(0 0)"></path><path class="logo-3" d="M596,40.24v2.08A1.81,1.81,0,0,0,597.7,44c2.54,0.37,7.14,1.82,7.69,7.41V98.92c0,4.29-1.88,3-3.59,1L547.14,38.76a2.2,2.2,0,0,0-2.29-.57c-2.34.73-4.37,0.57-7.25,0.75-1.45,0-.32.07-1.93,0.07-5.62,0-10.77-.36-14.24-0.49a1.88,1.88,0,0,0-2.08,1.71v2.08A1.81,1.81,0,0,0,521,44c2.54,0.37,7.15,1.82,7.69,7.41v80.14c-0.55,5.58-5.15,7-7.69,7.41a1.81,1.81,0,0,0-1.66,1.69v2.13a1.87,1.87,0,0,0,2,1.72h29a1.87,1.87,0,0,0,2-1.72v-2.13a1.81,1.81,0,0,0-1.66-1.69c-2.54-.37-7.14-1.82-7.69-7.41V70.69c0-1.68.18-2.45,0.88-2.73s1.71,0.47,2.75,1.74c17.37,21.16,44.78,48.16,56.19,63.25a35.73,35.73,0,0,1,5.76,10.3,2,2,0,0,0,1.93,1.25h7.21a1.87,1.87,0,0,0,2-1.72V51.42c0.54-5.59,5.15-7,7.69-7.41A1.81,1.81,0,0,0,629,42.32V40.24a1.88,1.88,0,0,0-2.08-1.71c-3.09.14-6.84,0.49-12.41,0.49s-13.27-.35-16.41-0.49A1.88,1.88,0,0,0,596,40.24" transform="translate(0 0)"></path><path class="logo-3" d="M835.92,122.54a1.93,1.93,0,0,0-1.84,1.13,24.32,24.32,0,0,1-4.09,6.94c-2.48,2.87-5.78,3.77-13.25,3.77h-29a1.83,1.83,0,0,1-1.94-1.68l0-35.16a1.83,1.83,0,0,1,2-1.68h8.41c5.34,0,7.69,1.35,9.45,3.08a14,14,0,0,1,2.75,3.85,2,2,0,0,0,1.8,1h3a1.82,1.82,0,0,0,1.94-1.67V80.56a1.82,1.82,0,0,0-1.94-1.68h-3a2,2,0,0,0-1.8,1,14,14,0,0,1-2.75,3.85c-1.77,1.73-4.12,3.08-9.45,3.08h-8.41a1.83,1.83,0,0,1-2-1.67l0-34.26a1.82,1.82,0,0,1,1.94-1.67H809c7.48,0,10.77.89,13.25,3.76a24.16,24.16,0,0,1,4.08,6.94,1.93,1.93,0,0,0,1.84,1.13h2.57a1.83,1.83,0,0,0,1.95-1.67V40.18a1.85,1.85,0,0,0-2-1.67c-4.51.12-7.61,0.61-14.26,0.61H795.17c-5.45,0-11.29,0-20.44,0-8.18,0-12.92-.49-18.44-0.59a1.84,1.84,0,0,0-2,1.67v2.19A1.76,1.76,0,0,0,755.91,44c2.52,0.36,7.18,1.79,7.72,7.41v80.14c-0.54,5.62-5.2,7-7.72,7.41a1.75,1.75,0,0,0-1.62,1.65v2.21a1.82,1.82,0,0,0,1.94,1.67H838.5a1.82,1.82,0,0,0,1.94-1.67V124.22a1.82,1.82,0,0,0-1.94-1.67h-2.58Z" transform="translate(0 0)"></path><path class="logo-3" d="M203.6,39.11c-6.67,0-9.77-.49-14.3-0.62a1.81,1.81,0,0,0-2,1.64V59.43a1.79,1.79,0,0,0,1.91,1.64h2.64A1.9,1.9,0,0,0,193.68,60a24,24,0,0,1,4.09-7c2.48-2.87,5.77-6.77,13.25-6.77h10.75a1.79,1.79,0,0,1,1.91,1.64v83.69c-0.55,5.64-5.24,7.06-7.76,7.42a1.72,1.72,0,0,0-1.59,1.61v2.27a1.79,1.79,0,0,0,1.91,1.64h37.07a1.78,1.78,0,0,0,1.9-1.64v-2.27a1.72,1.72,0,0,0-1.58-1.61c-2.52-.35-7.21-1.78-7.76-7.42V47.87a1.79,1.79,0,0,1,1.92-1.64h10.75c7.47,0,10.77,3.9,13.24,6.77a24.14,24.14,0,0,1,4.09,7,1.89,1.89,0,0,0,1.81,1.11h2.64a1.79,1.79,0,0,0,1.91-1.64V40.14a1.81,1.81,0,0,0-2-1.64c-4.54.12-7.64,0.62-14.31,0.62H203.6Z" transform="translate(0 0)"></path><path class="logo-3" d="M336.83,85.89H323.44a1.81,1.81,0,0,1-1.93-1.66c0-6.18,0-27.85,0-34.08a1.82,1.82,0,0,1,1.94-1.65c18.91,0,25,.51,31,6,4.67,4.35,5.84,12.46,2.88,19.36-3.61,8.42-11.6,12-20.48,12M383.47,131c-2.49-3-11.76-19.67-18.3-28.24A30.67,30.67,0,0,0,356,94.62c-1.44-.81-1-2.7.67-3,6.67-1.2,14.7-4,18.51-7.67a24,24,0,0,0,7.55-17.82c0-6.77-2-14.47-13.7-21.24s-39.58-5.78-39.6-5.78l-19,0c-8.19,0-12.92-.48-18.45-0.59a1.83,1.83,0,0,0-2,1.66v2.21A1.75,1.75,0,0,0,291.58,44c2.52,0.36,7.19,1.79,7.73,7.41v80.15c-0.54,5.62-5.21,7-7.73,7.41a1.75,1.75,0,0,0-1.61,1.64v2.23a1.81,1.81,0,0,0,1.93,1.66h37a1.81,1.81,0,0,0,1.93-1.66v-2.23a1.75,1.75,0,0,0-1.61-1.64c-2.53-.36-7.19-1.79-7.74-7.41V95.92a1.85,1.85,0,0,1,2.07-1.66c6.71,0.31,9.83,1.93,13.18,4.56,3.73,2.95,7.39,11.12,10.59,15.47S356,128.5,362,135.54c3.65,4.28,5,6.67,5.53,7.88a1.93,1.93,0,0,0,1.81,1.08h25.46a1.81,1.81,0,0,0,1.93-1.66v-2.19A1.76,1.76,0,0,0,395,139c-5.94-.72-9.28-5.27-11.57-8.07" transform="translate(0 0)"></path><path class="logo-3" d="M737.52,124.88V108.52a23.52,23.52,0,0,1,1.36-6.61,1.72,1.72,0,0,0-1.8-2.34H683a1.83,1.83,0,0,0-2,1.68v6.28a1.72,1.72,0,0,0,1.35,1.6c3,0.81,35.71-2.67,35.71,7.71v11.37c0,4.44-6.27,10.78-21.4,10.78s-27-5.92-33.5-21.73-4.59-39-.94-48.67c4.25-11.26,14.81-22.34,28-23.37,12.26-.95,19.32,4.09,24.93,13.1a71.74,71.74,0,0,1,6,11.21,1.94,1.94,0,0,0,1.84,1.13h4.07a1.84,1.84,0,0,0,2-1.68V46.78a1.8,1.8,0,0,0-1.77-1.67,75.7,75.7,0,0,1-20.47-4.62c-10.6-4.17-32.62-4.21-45.56,3.42S633.88,66.26,633.88,93s15.39,40.1,26.07,46.32c10,5.82,29.11,7.58,35.64,7.58s32-.92,51.55-8.88a1.7,1.7,0,0,0,1.12-1.53V133a1.62,1.62,0,0,0-.91-1.42c-1.49-.77-9.83-1.47-9.83-6.65" transform="translate(0 0)"></path><path class="logo-3" d="M388.75,136.45c3,2.37,5.82,2.33,9.46,0v4.05h-9.46v-4.05Z" transform="translate(0 0)"></path><path class="logo-3" d="M175.44,130.62c-2.47,2.87-5.77,3.76-13.25,3.76H133.31a1.89,1.89,0,0,1-2-1.73l0-35a1.9,1.9,0,0,1,2-1.74h8.33c5.34,0,7.69,1.35,9.46,3.08a14.35,14.35,0,0,1,2.74,3.8,2,2,0,0,0,1.86,1.07h2.83a1.9,1.9,0,0,0,2-1.74V80.62a1.9,1.9,0,0,0-2-1.74h-2.83A2.05,2.05,0,0,0,153.82,80a14.29,14.29,0,0,1-2.74,3.81c-1.77,1.73-4.12,3.08-9.46,3.08h-8.33a1.9,1.9,0,0,1-2-1.74l0-34.13a1.9,1.9,0,0,1,2-1.74h21.17c7.47,0,10.77.9,13.25,3.77a24.21,24.21,0,0,1,4.07,6.9,2,2,0,0,0,1.91,1.18h2.45a1.89,1.89,0,0,0,2-1.74V40.24a1.91,1.91,0,0,0-2.09-1.74c-4.47.13-7.57,0.61-14.19,0.61H140.61c-5.46,0-11.29,0-20.44,0-8.15,0-12.87-.48-18.36-0.59a1.92,1.92,0,0,0-2.08,1.74V42.3A1.83,1.83,0,0,0,101.41,44c2.54,0.38,7.13,1.83,7.67,7.4v80.15c-0.54,5.57-5.12,7-7.67,7.4a1.83,1.83,0,0,0-1.68,1.71v2.09a1.89,1.89,0,0,0,2,1.73h82.11a1.89,1.89,0,0,0,2-1.73V124.28a1.89,1.89,0,0,0-2-1.74h-2.44a2,2,0,0,0-1.91,1.17,24.19,24.19,0,0,1-4.07,6.9" transform="translate(0 0)"></path><path class="logo-3" d="M117.66,34.56a0.19,0.19,0,0,1-.12-0.34L153.78,5.41C156.6,3.06,160.37,0,164.12,0a8.18,8.18,0,0,1,8.23,8.23c0,7.76-9.17,10.11-15,12.69l-31.17,13.5a1.7,1.7,0,0,1-.67.14h-7.8Z" transform="translate(0 0)"></path><path class="logo-3" d="M79.17,130.62c-2.48,2.87-5.77,3.76-13.25,3.76H33.55a1.87,1.87,0,0,1-2-1.71l0-81.26c0.54-5.58,5.15-7,7.68-7.41a1.8,1.8,0,0,0,1.66-1.69v-2.1a1.88,1.88,0,0,0-2-1.72c-4.9.12-10.37,0.58-18.39,0.58S7.56,38.6,2.06,38.49A1.9,1.9,0,0,0,0,40.21v2.11A1.81,1.81,0,0,0,1.66,44c2.54,0.37,7.15,1.82,7.69,7.41v80.15c-0.54,5.58-5.15,7-7.69,7.41A1.8,1.8,0,0,0,0,140.65v2.13a1.87,1.87,0,0,0,2,1.71H87.62a1.87,1.87,0,0,0,2-1.71V124.26a1.87,1.87,0,0,0-2-1.72H85.13a2,2,0,0,0-1.88,1.16,24.25,24.25,0,0,1-4.07,6.92" transform="translate(0 0)"></path><path class="logo-3" d="M175.22,214.08V166.21h14.94q8.82,0,11.5.72a12.59,12.59,0,0,1,6.89,4.69,14.86,14.86,0,0,1,2.78,9.32,15.62,15.62,0,0,1-1.6,7.41,13.13,13.13,0,0,1-4.07,4.72,14.12,14.12,0,0,1-5,2.27,55.75,55.75,0,0,1-10,.68h-6.3v18.06h-9.1Zm9.1-39.78v13.59h5.28q5.72,0,7.65-.75a6.26,6.26,0,0,0,4.11-6.07,6.19,6.19,0,0,0-1.53-4.31,6.65,6.65,0,0,0-3.88-2.12,46.58,46.58,0,0,0-7-.33h-4.67Z" transform="translate(0 0)"></path><path class="logo-3" d="M256.23,214.08h-9.94l-4.18-10.88H223L219,214.08h-9.69L228,166.21h9.09ZM239,195.14l-6.59-17.77-6.47,17.77H239Z" transform="translate(0 0)"></path><path class="logo-3" d="M261.85,214.08V166.21h19.79q7.68,0,11.15,1.29a11,11,0,0,1,5.57,4.59,13.81,13.81,0,0,1,2.09,7.54,12.81,12.81,0,0,1-3.17,8.9c-2.11,2.34-5.84,3.81-10,4.42a22.39,22.39,0,0,1,5.18,4,55.43,55.43,0,0,1,5.51,7.78l5.84,9.34h-11l-7-10.42a66.65,66.65,0,0,0-5.1-7,7.37,7.37,0,0,0-2.91-2,15.92,15.92,0,0,0-4.86-.54h-2v20h-9.1Zm9.1-27.62h7.16q7,0,8.68-.59a5.21,5.21,0,0,0,2.71-2,6.21,6.21,0,0,0,1-3.6,5.75,5.75,0,0,0-1.29-3.9,5.89,5.89,0,0,0-3.64-1.88q-1.17-.16-7.05-0.17H271v12.15Z" transform="translate(0 0)"></path><rect class="logo-3" x="309.9" y="166.21" width="9.02" height="47.88"></rect><polygon class="logo-3" points="538.85 172.9 550.23 166.21 556.58 166.21 556.58 214.09 547.56 214.09 547.56 176.65 538.85 181.47 538.85 172.9"></polygon><path class="logo-3" d="M576,188.26a10.29,10.29,0,0,1-6.79-9.89,11.57,11.57,0,0,1,3.74-8.85q3.74-3.49,10.62-3.5t10.6,3.5a11.54,11.54,0,0,1,3.78,8.85,10.46,10.46,0,0,1-1.73,5.93,10.91,10.91,0,0,1-4.87,4,12.84,12.84,0,0,1,6.06,4.67,12.29,12.29,0,0,1,2.07,7.09,14.46,14.46,0,0,1-4.22,10.78Q591,214.93,584,214.94a17,17,0,0,1-10.88-3.43,13.37,13.37,0,0,1-5.13-11.1,13.75,13.75,0,0,1,1.93-7.14,12.42,12.42,0,0,1,6.07-5m1,11.27a8.43,8.43,0,0,0,1.95,5.91,6.31,6.31,0,0,0,4.85,2.12,6.12,6.12,0,0,0,4.7-2,8.51,8.51,0,0,0,1.86-5.9,7.61,7.61,0,0,0-1.9-5.4,6.26,6.26,0,0,0-4.8-2,5.74,5.74,0,0,0-5,2.32,8.52,8.52,0,0,0-1.65,5M577.88,179a5.75,5.75,0,0,0,1.55,4.28,6.37,6.37,0,0,0,8.31,0,5.77,5.77,0,0,0,1.57-4.29,5.61,5.61,0,0,0-1.55-4.14,5.54,5.54,0,0,0-4.1-1.55,5.65,5.65,0,0,0-4.21,1.57,5.59,5.59,0,0,0-1.57,4.14" transform="translate(0 0)"></path><path class="logo-3" d="M606.65,201.38l8.88-1.07a8.44,8.44,0,0,0,2.28,5.19,6.26,6.26,0,0,0,4.51,1.79,6.16,6.16,0,0,0,4.78-2.16,8.34,8.34,0,0,0,1.94-5.81,7.82,7.82,0,0,0-1.85-5.49,5.94,5.94,0,0,0-4.54-2,16.28,16.28,0,0,0-4.22.68l1-7.48a8,8,0,0,0,5.68-1.62,5.75,5.75,0,0,0,2-4.55,4.94,4.94,0,0,0-5.25-5.3,5.55,5.55,0,0,0-4,1.64,7.69,7.69,0,0,0-2,4.77l-8.46-1.44a18.81,18.81,0,0,1,2.66-6.94,12,12,0,0,1,5-4.08,16.66,16.66,0,0,1,7.13-1.49,14.25,14.25,0,0,1,10.85,4.31,11.28,11.28,0,0,1,3.36,8q0,6.3-6.9,10.05a11.11,11.11,0,0,1,6.58,4,11.44,11.44,0,0,1,2.47,7.41,14.36,14.36,0,0,1-4.61,10.74,17.19,17.19,0,0,1-22.24.7,14.68,14.68,0,0,1-5-9.78" transform="translate(0 0)"></path><path class="logo-3" d="M653.71,188.26a10.69,10.69,0,0,1-5.17-4.13,10.81,10.81,0,0,1-1.62-5.76,11.58,11.58,0,0,1,3.74-8.85q3.74-3.49,10.63-3.5t10.6,3.5a11.53,11.53,0,0,1,3.77,8.85,10.46,10.46,0,0,1-1.73,5.93,10.91,10.91,0,0,1-4.87,4,12.88,12.88,0,0,1,6.07,4.67,12.34,12.34,0,0,1,2.07,7.09A14.45,14.45,0,0,1,673,210.79q-4.24,4.14-11.25,4.14a17,17,0,0,1-10.88-3.43,13.38,13.38,0,0,1-5.13-11.1,13.72,13.72,0,0,1,1.93-7.14,12.41,12.41,0,0,1,6.07-5m1,11.27a8.43,8.43,0,0,0,1.94,5.91,6.32,6.32,0,0,0,4.85,2.12,6.12,6.12,0,0,0,4.7-2,8.5,8.5,0,0,0,1.86-5.9,7.62,7.62,0,0,0-1.9-5.4,6.26,6.26,0,0,0-4.8-2,5.74,5.74,0,0,0-5,2.32,8.52,8.52,0,0,0-1.65,5M655.61,179a5.76,5.76,0,0,0,1.55,4.28,5.61,5.61,0,0,0,4.13,1.53,5.68,5.68,0,0,0,4.18-1.55A5.78,5.78,0,0,0,667,179a5.6,5.6,0,0,0-1.55-4.14,5.54,5.54,0,0,0-4.1-1.55,5.66,5.66,0,0,0-4.21,1.57,5.59,5.59,0,0,0-1.57,4.14" transform="translate(0 0)"></path><path class="logo-3" d="M362.09,207.91a15,15,0,0,0,.38-15.25,13.42,13.42,0,0,0-5.26-4.84,47.33,47.33,0,0,0-10.5-3.46c-4.85-1.15-7.82-2.23-9.09-3.29a4,4,0,0,1-1.54-3.12,3.8,3.8,0,0,1,1.65-3.22,11.49,11.49,0,0,1,6.82-1.79c2.81,0,4.95.57,6.35,1.68a8.45,8.45,0,0,1,2.75,5.3l9.31-.41a13.9,13.9,0,0,0-4.74-10.25c-3-2.61-7.58-3.93-13.57-3.93a24,24,0,0,0-9.43,1.66,13,13,0,0,0-5.94,4.82,12.26,12.26,0,0,0-2.05,6.78,12.43,12.43,0,0,0,4.37,9.57c2.07,1.85,5.75,3.44,10.93,4.73,4,1,6.68,1.72,7.86,2.12A8.37,8.37,0,0,1,354,197.2a4.68,4.68,0,0,1,1.07,3.08,6.23,6.23,0,0,1-2.49,4.87c-1.64,1.36-4.08,2.05-7.28,2.05a10.85,10.85,0,0,1-7.26-2.31,11.74,11.74,0,0,1-3.52-7l-9,.88c0.66,5.21,2.6,9.23,5.76,12s7.91,4.18,13.94,4.18a27.24,27.24,0,0,0,10.44-1.75,13.68,13.68,0,0,0,6.43-5.31" transform="translate(0 0)"></path></g></svg> 